<svg xmlns="http://www.w3.org/2000/svg" viewBox="0 0 48 48" width="48" height="48">
  <path d="M24 4C12.95 4 4 12.95 4 24s8.95 20 20 20 20-8.95 20-20S35.05 4 24 4z" fill="#DB4437"/>
  <path d="M24 4c7.28 0 13.54 3.89 17.04 9.71L24 24V4z" fill="#DB4437"/>
  <path d="M41.04 13.71A19.94 19.94 0 0 1 44 24c0 11.05-8.95 20-20 20l-6.96-10.29L24 24l17.04-10.29z" fill="#F4B400"/>
  <path d="M24 44C12.95 44 4 35.05 4 24c0-4.24 1.32-8.18 3.57-11.42L17.04 33.71 24 44z" fill="#0F9D58"/>
  <path d="M7.57 12.58A19.9 19.9 0 0 1 24 4v20L7.57 12.58z" fill="#DB4437"/>
  <path d="M24 4v20l17.04-10.29A19.94 19.94 0 0 0 24 4z" fill="#E57368"/>
  <path d="M24 44l-6.96-10.29L24 24l17.04-10.29A19.94 19.94 0 0 1 44 24c0 11.05-8.95 20-20 20z" fill="#F4B400"/>
  <path d="M24 44C12.95 44 4 35.05 4 24c0-4.24 1.32-8.18 3.57-11.42L24 24 24 44z" fill="#0F9D58"/>
  <path d="M17.04 33.71L7.57 12.58 24 24l-6.96 9.71z" fill="#1A7F43"/>
  <circle cx="24" cy="24" r="8.5" fill="#F1F1F1"/>
  <circle cx="24" cy="24" r="6.8" fill="#4285F4"/>
</svg>
