<svg xmlns="http://www.w3.org/2000/svg" viewBox="0 0 24 24" width="24" height="24"><path d="M4.459 4.208c.746.606 1.026.56 2.428.466l13.215-.793c.28 0 .047-.28-.046-.326L18.28 2.29c-.42-.326-.98-.7-2.054-.607L3.39 2.71c-.466.047-.56.28-.374.466zm.793 3.08v13.904c0 .747.373 1.027 1.214.98l14.523-.84c.84-.046.933-.56.933-1.167V6.354c0-.606-.233-.933-.746-.886l-15.177.887c-.56.046-.747.326-.747.933zm14.337.745c.093.42 0 .84-.42.888l-.7.14v10.264c-.608.327-1.168.514-1.635.514-.747 0-.933-.234-1.494-.934l-4.577-7.186v6.952l1.448.327s0 .84-1.168.84l-3.22.186c-.094-.186 0-.653.327-.746l.84-.233V9.854L7.822 9.76c-.094-.42.14-1.026.793-1.073l3.454-.233 4.763 7.279v-6.44l-1.215-.14c-.093-.513.28-.886.747-.933zM2.718 1.304L16.71.257c1.68-.14 2.1.093 2.8.606l3.874 2.707c.467.326.607.747.607 1.26v16.06c0 1.026-.373 1.632-1.68 1.726l-15.458.933c-.98.047-1.448-.093-1.962-.747l-3.127-4.06c-.56-.747-.793-1.306-.793-1.96V2.984c0-.84.373-1.54 1.448-1.68z" fill="#fff"/></svg>
